<?xml version="1.0" encoding="UTF-8" standalone="no"?>
<!-- Created with Inkscape (http://www.inkscape.org/) -->
<svg
   xmlns:dc="http://purl.org/dc/elements/1.1/"
   xmlns:cc="http://creativecommons.org/ns#"
   xmlns:rdf="http://www.w3.org/1999/02/22-rdf-syntax-ns#"
   xmlns:svg="http://www.w3.org/2000/svg"
   xmlns="http://www.w3.org/2000/svg"
   xmlns:sodipodi="http://sodipodi.sourceforge.net/DTD/sodipodi-0.dtd"
   xmlns:inkscape="http://www.inkscape.org/namespaces/inkscape"
   width="1530"
   height="990"
   id="svg2"
   sodipodi:version="0.32"
   inkscape:version="0.46"
   version="1.0"
   sodipodi:docname="retrowebsiteheader.svg"
   inkscape:output_extension="org.inkscape.output.svg.inkscape"
   style="display:inline">
  <defs
     id="defs4">
    <inkscape:path-effect
       effect="bend_path"
       id="path-effect3347"
       bendpath="M 117.375,477.112 L 1153.39,477.112 "
       prop_scale="1" />
    <inkscape:perspective
       sodipodi:type="inkscape:persp3d"
       inkscape:vp_x="0 : 526.18109 : 1"
       inkscape:vp_y="0 : 1000 : 0"
       inkscape:vp_z="744.09448 : 526.18109 : 1"
       inkscape:persp3d-origin="372.04724 : 350.78739 : 1"
       id="perspective10" />
    <inkscape:perspective
       id="perspective2464"
       inkscape:persp3d-origin="372.04724 : 350.78739 : 1"
       inkscape:vp_z="744.09448 : 526.18109 : 1"
       inkscape:vp_y="0 : 1000 : 0"
       inkscape:vp_x="0 : 526.18109 : 1"
       sodipodi:type="inkscape:persp3d" />
    <inkscape:perspective
       id="perspective2531"
       inkscape:persp3d-origin="372.04724 : 350.78739 : 1"
       inkscape:vp_z="744.09448 : 526.18109 : 1"
       inkscape:vp_y="0 : 1000 : 0"
       inkscape:vp_x="0 : 526.18109 : 1"
       sodipodi:type="inkscape:persp3d" />
  </defs>
  <sodipodi:namedview
     id="base"
     pagecolor="#ffffff"
     bordercolor="#666666"
     borderopacity="1.0"
     gridtolerance="10000"
     guidetolerance="10"
     objecttolerance="10"
     inkscape:pageopacity="0.0"
     inkscape:pageshadow="2"
     inkscape:zoom="0.49497475"
     inkscape:cx="580.35588"
     inkscape:cy="391.40403"
     inkscape:document-units="px"
     inkscape:current-layer="layer6"
     showgrid="false"
     units="in"
     inkscape:window-width="1280"
     inkscape:window-height="998"
     inkscape:window-x="0"
     inkscape:window-y="0" />
  <metadata
     id="metadata7">
    <rdf:RDF>
      <cc:Work
         rdf:about="">
        <dc:format>image/svg+xml</dc:format>
        <dc:type
           rdf:resource="http://purl.org/dc/dcmitype/StillImage" />
      </cc:Work>
    </rdf:RDF>
  </metadata>
  <g
     inkscape:groupmode="layer"
     id="layer4"
     inkscape:label="Background Stripes"
     style="display:inline"
     sodipodi:insensitive="true">
    <rect
       style="opacity:1;fill:#662736;fill-opacity:1;stroke:none;stroke-width:13.19299984;stroke-linejoin:miter;stroke-miterlimit:4;stroke-dasharray:none;stroke-opacity:1"
       id="rect3323"
       width="1408.1526"
       height="131"
       x="70.710678"
       y="-398.36407"
       transform="scale(1,-1)" />
    <rect
       style="opacity:1;fill:#9d2928;fill-opacity:1;stroke:none;stroke-width:13.19299984;stroke-linejoin:miter;stroke-miterlimit:4;stroke-dasharray:none;stroke-opacity:1"
       id="rect3325"
       width="1408.1526"
       height="131"
       x="70.920242"
       y="-530.86725"
       transform="scale(1,-1)" />
  </g>
  <g
     inkscape:groupmode="layer"
     id="layer7"
     inkscape:label="Horizontal Rule"
     style="display:inline"
     sodipodi:insensitive="true">
    <path
       style="fill:none;fill-opacity:1;fill-rule:evenodd;stroke:#d2ddc5;stroke-width:4.80000019;stroke-linecap:butt;stroke-linejoin:miter;stroke-miterlimit:4;stroke-dasharray:none;stroke-opacity:1"
       d="M 71.215759,397.286 L 1475.4541,397.286"
       id="path3329"
       sodipodi:nodetypes="cc" />
  </g>
  <g
     inkscape:groupmode="layer"
     id="layer5"
     inkscape:label="Digital Grid"
     style="display:none"
     sodipodi:insensitive="true">
    <path
       style="fill:none;fill-opacity:0.75;fill-rule:evenodd;stroke:#d2ddc5;stroke-width:4.80000019;stroke-linecap:butt;stroke-linejoin:miter;stroke-miterlimit:4;stroke-dasharray:none;stroke-opacity:1"
       d="M 98.898526,399.18175 L 99.403596,273.92284 L 98.393446,273.41776"
       id="path3351" />
    <path
       style="fill:none;fill-opacity:0.75;fill-rule:evenodd;stroke:#d2ddc5;stroke-width:4.80000019;stroke-linecap:butt;stroke-linejoin:miter;stroke-miterlimit:4;stroke-dasharray:none;stroke-opacity:1"
       d="M 166.63315,399.18175 L 167.13822,273.92284 L 166.12807,273.41776"
       id="path3353" />
    <path
       style="fill:none;fill-opacity:0.75;fill-rule:evenodd;stroke:#d2ddc5;stroke-width:4.80000019;stroke-linecap:butt;stroke-linejoin:miter;stroke-miterlimit:4;stroke-dasharray:none;stroke-opacity:1"
       d="M 234.36777,399.18175 L 234.87284,273.92284 L 233.86269,273.41776"
       id="path3355" />
    <path
       style="fill:none;fill-opacity:0.75;fill-rule:evenodd;stroke:#d2ddc5;stroke-width:4.80000019;stroke-linecap:butt;stroke-linejoin:miter;stroke-miterlimit:4;stroke-dasharray:none;stroke-opacity:1"
       d="M 302.10239,399.18175 L 302.60746,273.92284 L 301.59731,273.41776"
       id="path3357" />
    <path
       style="fill:none;fill-opacity:0.75;fill-rule:evenodd;stroke:#d2ddc5;stroke-width:4.80000019;stroke-linecap:butt;stroke-linejoin:miter;stroke-miterlimit:4;stroke-dasharray:none;stroke-opacity:1"
       d="M 369.83703,399.18175 L 370.3421,273.92284 L 369.33195,273.41776"
       id="path3359" />
    <path
       style="fill:none;fill-opacity:0.75;fill-rule:evenodd;stroke:#d2ddc5;stroke-width:4.80000019;stroke-linecap:butt;stroke-linejoin:miter;stroke-miterlimit:4;stroke-dasharray:none;stroke-opacity:1"
       d="M 437.57165,399.18175 L 438.07672,273.92284 L 437.06657,273.41776"
       id="path3361" />
    <path
       style="fill:none;fill-opacity:0.75;fill-rule:evenodd;stroke:#d2ddc5;stroke-width:4.80000019;stroke-linecap:butt;stroke-linejoin:miter;stroke-miterlimit:4;stroke-dasharray:none;stroke-opacity:1"
       d="M 505.30626,399.18175 L 505.81133,273.92284 L 504.80118,273.41776"
       id="path3363" />
    <path
       style="fill:none;fill-opacity:0.75;fill-rule:evenodd;stroke:#d2ddc5;stroke-width:4.80000019;stroke-linecap:butt;stroke-linejoin:miter;stroke-miterlimit:4;stroke-dasharray:none;stroke-opacity:1"
       d="M 573.04088,399.18175 L 573.54595,273.92284 L 572.5358,273.41776"
       id="path3365" />
    <path
       style="fill:none;fill-opacity:0.75;fill-rule:evenodd;stroke:#d2ddc5;stroke-width:4.80000019;stroke-linecap:butt;stroke-linejoin:miter;stroke-miterlimit:4;stroke-dasharray:none;stroke-opacity:1;display:inline"
       d="M 640.77553,399.18175 L 641.2806,273.92284 L 640.27045,273.41776"
       id="path2470" />
    <path
       style="fill:none;fill-opacity:0.75;fill-rule:evenodd;stroke:#d2ddc5;stroke-width:4.80000019;stroke-linecap:butt;stroke-linejoin:miter;stroke-miterlimit:4;stroke-dasharray:none;stroke-opacity:1;display:inline"
       d="M 708.51015,399.18175 L 709.01522,273.92284 L 708.00507,273.41776"
       id="path2472" />
    <path
       style="fill:none;fill-opacity:0.75;fill-rule:evenodd;stroke:#d2ddc5;stroke-width:4.80000019;stroke-linecap:butt;stroke-linejoin:miter;stroke-miterlimit:4;stroke-dasharray:none;stroke-opacity:1;display:inline"
       d="M 776.24477,399.18175 L 776.74984,273.92284 L 775.73969,273.41776"
       id="path2474" />
    <path
       style="fill:none;fill-opacity:0.75;fill-rule:evenodd;stroke:#d2ddc5;stroke-width:4.80000019;stroke-linecap:butt;stroke-linejoin:miter;stroke-miterlimit:4;stroke-dasharray:none;stroke-opacity:1;display:inline"
       d="M 843.97939,399.18175 L 844.48446,273.92284 L 843.47431,273.41776"
       id="path2476" />
    <path
       style="fill:none;fill-opacity:0.75;fill-rule:evenodd;stroke:#d2ddc5;stroke-width:4.80000019;stroke-linecap:butt;stroke-linejoin:miter;stroke-miterlimit:4;stroke-dasharray:none;stroke-opacity:1;display:inline"
       d="M 911.71401,399.18175 L 912.21908,273.92284 L 911.20893,273.41776"
       id="path2478" />
    <path
       style="fill:none;fill-opacity:0.75;fill-rule:evenodd;stroke:#d2ddc5;stroke-width:4.80000019;stroke-linecap:butt;stroke-linejoin:miter;stroke-miterlimit:4;stroke-dasharray:none;stroke-opacity:1;display:inline"
       d="M 979.44863,399.18175 L 979.9537,273.92284 L 978.94355,273.41776"
       id="path2480" />
    <path
       style="fill:none;fill-opacity:0.75;fill-rule:evenodd;stroke:#d2ddc5;stroke-width:4.80000019;stroke-linecap:butt;stroke-linejoin:miter;stroke-miterlimit:4;stroke-dasharray:none;stroke-opacity:1;display:inline"
       d="M 1047.1833,399.18175 L 1047.6883,273.92284 L 1046.6782,273.41776"
       id="path2482" />
    <path
       style="fill:none;fill-opacity:0.75;fill-rule:evenodd;stroke:#d2ddc5;stroke-width:4.80000019;stroke-linecap:butt;stroke-linejoin:miter;stroke-miterlimit:4;stroke-dasharray:none;stroke-opacity:1;display:inline"
       d="M 1114.9177,399.18175 L 1115.4228,273.92284 L 1114.4127,273.41776"
       id="path2484" />
    <path
       style="fill:none;fill-opacity:0.75;fill-rule:evenodd;stroke:#d2ddc5;stroke-width:4.80000019;stroke-linecap:butt;stroke-linejoin:miter;stroke-miterlimit:4;stroke-dasharray:none;stroke-opacity:1;display:inline"
       d="M 1182.6524,399.18175 L 1183.1574,273.92284 L 1182.1473,273.41776"
       id="path2486" />
    <path
       style="fill:none;fill-opacity:0.75;fill-rule:evenodd;stroke:#d2ddc5;stroke-width:4.80000019;stroke-linecap:butt;stroke-linejoin:miter;stroke-miterlimit:4;stroke-dasharray:none;stroke-opacity:1;display:inline"
       d="M 1250.3871,399.18175 L 1250.8921,273.92284 L 1249.882,273.41776"
       id="path2488" />
    <path
       style="fill:none;fill-opacity:0.75;fill-rule:evenodd;stroke:#d2ddc5;stroke-width:4.80000019;stroke-linecap:butt;stroke-linejoin:miter;stroke-miterlimit:4;stroke-dasharray:none;stroke-opacity:1;display:inline"
       d="M 1318.1217,399.18175 L 1318.6267,273.92284 L 1317.6166,273.41776"
       id="path2490" />
    <path
       style="fill:none;fill-opacity:0.75;fill-rule:evenodd;stroke:#d2ddc5;stroke-width:4.80000019;stroke-linecap:butt;stroke-linejoin:miter;stroke-miterlimit:4;stroke-dasharray:none;stroke-opacity:1;display:inline"
       d="M 1385.8563,399.18175 L 1386.3613,273.92284 L 1385.3512,273.41776"
       id="path2492" />
    <path
       style="fill:none;fill-opacity:0.75;fill-rule:evenodd;stroke:#d2ddc5;stroke-width:4.80000019;stroke-linecap:butt;stroke-linejoin:miter;stroke-miterlimit:4;stroke-dasharray:none;stroke-opacity:1;display:inline"
       d="M 1453.5908,399.18175 L 1454.0959,273.92284 L 1453.0858,273.41776"
       id="path2494" />
  </g>
  <g
     inkscape:groupmode="layer"
     id="layer2"
     inkscape:label="Creme Frame"
     sodipodi:insensitive="true"
     style="display:inline">
    <g
       id="g3317">
      <rect
         ry="35.142857"
         rx="36.214287"
         y="273.10916"
         x="69.842522"
         height="250.92456"
         width="1407.7435"
         id="rect2538"
         style="opacity:1;fill:none;fill-opacity:1;stroke:#b8c1a8;stroke-width:13.10621262;stroke-linejoin:round;stroke-miterlimit:4;stroke-dasharray:none;stroke-opacity:1" />
      <rect
         ry="0"
         rx="0"
         y="273.10916"
         x="69.842522"
         height="250.92456"
         width="1407.7435"
         id="rect3315"
         style="opacity:1;fill:none;fill-opacity:1;stroke:#b8c1a8;stroke-width:13.10621262;stroke-linejoin:miter;stroke-miterlimit:4;stroke-dasharray:none;stroke-opacity:1" />
    </g>
  </g>
  <g
     inkscape:groupmode="layer"
     id="layer6"
     inkscape:label="Lettering"
     style="display:inline">
    <flowRoot
       xml:space="preserve"
       id="flowRoot3395"
       style="font-size:12px;font-style:normal;font-variant:normal;font-weight:bold;font-stretch:normal;text-align:end;line-height:125%;writing-mode:lr-tb;text-anchor:end;fill:#000000;fill-opacity:1;stroke:none;stroke-width:1px;stroke-linecap:butt;stroke-linejoin:miter;stroke-opacity:1;font-family:Lucida Sans;-inkscape-font-specification:Lucida Sans Bold"><flowRegion
         id="flowRegion3397"><rect
           id="rect3399"
           width="492.85715"
           height="135"
           x="143.57143"
           y="254.28572" /></flowRegion><flowPara
         id="flowPara3401" /></flowRoot>    <flowRoot
       xml:space="preserve"
       id="flowRoot3403"
       style="font-size:26.79999924px;font-style:normal;font-variant:normal;font-weight:bold;font-stretch:normal;text-align:start;line-height:100%;writing-mode:lr-tb;text-anchor:start;fill:#d2ddc5;fill-opacity:1;stroke:none;stroke-width:1px;stroke-linecap:butt;stroke-linejoin:miter;stroke-opacity:1;font-family:Arial;-inkscape-font-specification:Arial Bold"
       transform="translate(-28,-30)"><flowRegion
         id="flowRegion3405"><rect
           id="rect3407"
           width="795"
           height="37.14286"
           x="151.42857"
           y="447.85715"
           style="font-size:26.79999924px;font-style:normal;font-variant:normal;font-weight:bold;font-stretch:normal;text-align:start;line-height:100%;writing-mode:lr-tb;text-anchor:start;fill:#d2ddc5;fill-opacity:1;font-family:Arial;-inkscape-font-specification:Arial Bold" /></flowRegion><flowPara
         id="flowPara3384">adventures in retrocomputing</flowPara></flowRoot>    <path
       style="font-size:90px;font-style:normal;font-variant:normal;font-weight:bold;font-stretch:normal;text-align:center;line-height:100%;writing-mode:lr-tb;text-anchor:middle;fill:none;fill-opacity:1;stroke:#d2ddc5;stroke-width:3.0999999;stroke-linecap:round;stroke-linejoin:round;stroke-miterlimit:4;stroke-dasharray:none;stroke-opacity:1;display:inline;font-family:Arial;-inkscape-font-specification:Arial Bold"
       d="M 128.78107,370.71552 L 114.01544,324.04559 L 126.01251,324.04559 L 134.75763,354.63153 L 142.79962,324.04559 L 154.7088,324.04559 L 162.48712,354.63153 L 171.40802,324.04559 L 183.58087,324.04559 L 168.59552,370.71552 L 156.73029,370.71552 L 148.68829,340.70087 L 140.77814,370.71552 L 128.78107,370.71552 z M 202.34552,306.29169 L 202.34552,329.97821 C 206.32987,325.32005 211.09061,322.99095 216.62775,322.99091 C 219.46951,322.99095 222.03298,323.5183 224.31818,324.57294 C 226.60329,325.62767 228.32448,326.97532 229.48175,328.61591 C 230.63893,330.25657 231.42994,332.07298 231.8548,334.06512 C 232.27955,336.05735 232.49196,339.14816 232.492,343.33759 L 232.492,370.71552 L 220.14337,370.71552 L 220.14337,346.06219 C 220.14334,341.16965 219.90896,338.06418 219.44025,336.74579 C 218.97146,335.42746 218.14383,334.3801 216.95734,333.6037 C 215.77078,332.82737 214.28397,332.43919 212.49689,332.43915 C 210.44608,332.43919 208.61503,332.93723 207.00372,333.93329 C 205.39237,334.92942 204.21318,336.43088 203.46613,338.43768 C 202.71904,340.44455 202.3455,343.41085 202.34552,347.33661 L 202.34552,370.71552 L 189.99689,370.71552 L 189.99689,306.29169 L 202.34552,306.29169 z M 272.08673,355.862 L 284.39142,357.92743 C 282.80934,362.43916 280.31179,365.87421 276.89874,368.2326 C 273.48562,370.591 269.21561,371.7702 264.08868,371.7702 C 255.97343,371.7702 249.96758,369.11884 246.07111,363.8161 C 242.99493,359.56807 241.45685,354.20674 241.45685,347.73212 C 241.45685,339.99777 243.47833,333.94065 247.5213,329.56073 C 251.56426,325.18089 256.67656,322.99095 262.85822,322.99091 C 269.80154,322.99095 275.28005,325.28343 279.29376,329.86835 C 283.30739,334.45334 285.22633,341.47726 285.0506,350.94012 L 254.1131,350.94012 C 254.20097,354.60225 255.19707,357.45137 257.10138,359.48749 C 259.00566,361.52363 261.3787,362.5417 264.22052,362.54169 C 266.15409,362.5417 267.78006,362.01435 269.09845,360.95966 C 270.41678,359.90498 271.41287,358.20576 272.08673,355.862 L 272.08673,355.862 z M 272.78986,343.38153 C 272.70193,339.80734 271.77908,337.09006 270.0213,335.22968 C 268.26346,333.36936 266.12479,332.43919 263.60529,332.43915 C 260.90995,332.43919 258.68339,333.42063 256.9256,335.38348 C 255.16777,337.34641 254.30351,340.01242 254.33282,343.38153 L 272.78986,343.38153 z M 337.60919,370.71552 L 325.26056,370.71552 L 325.26056,346.89716 C 325.26052,341.85812 324.99685,338.59885 324.46954,337.11932 C 323.94216,335.63987 323.08523,334.48997 321.89874,333.66962 C 320.71219,332.84934 319.28397,332.43919 317.61407,332.43915 C 315.47538,332.43919 313.55643,333.02512 311.85724,334.19696 C 310.158,335.36887 308.99345,336.9216 308.36359,338.85516 C 307.73368,340.78879 307.41874,344.363 307.41876,349.57782 L 307.41876,370.71552 L 295.07013,370.71552 L 295.07013,324.04559 L 306.53986,324.04559 L 306.53986,330.90106 C 310.6121,325.62767 315.73905,322.99095 321.92072,322.99091 C 324.64529,322.99095 327.13552,323.48168 329.39142,324.46307 C 331.64723,325.44456 333.35378,326.697 334.51105,328.2204 C 335.66823,329.74388 336.47389,331.47239 336.92804,333.40594 C 337.38209,335.33957 337.60914,338.10813 337.60919,341.71161 L 337.60919,370.71552 z M 349.2547,324.04559 L 360.63654,324.04559 L 360.63654,330.41766 C 364.70878,325.46654 369.55741,322.99095 375.18243,322.99091 C 378.17068,322.99095 380.76345,323.60619 382.96075,324.83661 C 385.15798,326.06712 386.95973,327.92747 388.36603,330.41766 C 390.41676,327.92747 392.62867,326.06712 395.00177,324.83661 C 397.37476,323.60619 399.90894,322.99095 402.60431,322.99091 C 406.03198,322.99095 408.93237,323.68675 411.30548,325.07831 C 413.67846,326.46995 415.45092,328.51341 416.62286,331.20868 C 417.4724,333.2009 417.8972,336.42356 417.89728,340.87665 L 417.89728,370.71552 L 405.54865,370.71552 L 405.54865,344.04071 C 405.54858,339.41184 405.12378,336.42356 404.27423,335.07587 C 403.13159,333.31809 401.37378,332.43919 399.00079,332.43915 C 397.27222,332.43919 395.64625,332.96653 394.12286,334.02118 C 392.59938,335.0759 391.50075,336.62131 390.82697,338.65741 C 390.15309,340.69357 389.81618,343.9089 389.81622,348.30341 L 389.81622,370.71552 L 377.46759,370.71552 L 377.46759,345.13934 C 377.46756,340.59836 377.24783,337.66867 376.80841,336.35028 C 376.36892,335.03196 375.68777,334.05051 374.76495,333.40594 C 373.84207,332.76145 372.58963,332.43919 371.00763,332.43915 C 369.10331,332.43919 367.38944,332.95188 365.86603,333.97723 C 364.34257,335.00266 363.25126,336.48215 362.5921,338.41571 C 361.9329,340.34933 361.60331,343.55734 361.60333,348.03973 L 361.60333,370.71552 L 349.2547,370.71552 L 349.2547,324.04559 z M 439.38654,338.28387 L 428.18048,336.26239 C 429.44024,331.75071 431.60821,328.41087 434.68439,326.24286 C 437.76055,324.07494 442.33085,322.99095 448.39532,322.99091 C 453.90311,322.99095 458.00467,323.64281 460.70001,324.94647 C 463.39529,326.25023 465.29226,327.9055 466.39093,329.91229 C 467.48952,331.91917 468.03884,335.60325 468.03888,340.96454 L 467.90704,355.3786 C 467.907,359.48017 468.10475,362.50507 468.50031,364.45331 C 468.89577,366.40155 469.63551,368.48895 470.71954,370.71552 L 458.50275,370.71552 C 458.18045,369.8952 457.78494,368.67938 457.31622,367.06805 C 457.11111,366.33564 456.96463,365.85224 456.87677,365.61786 C 454.76736,367.66864 452.51151,369.20673 450.10919,370.23212 C 447.70682,371.25751 445.14335,371.7702 442.41876,371.7702 C 437.61406,371.7702 433.82744,370.46649 431.0589,367.85907 C 428.29034,365.25165 426.90606,361.95576 426.90607,357.97137 C 426.90606,355.33467 427.53595,352.9836 428.79572,350.91815 C 430.05547,348.85274 431.82061,347.27071 434.09113,346.17206 C 436.36162,345.07345 439.63554,344.11398 443.9129,343.29364 C 449.68436,342.20968 453.68338,341.19894 455.90997,340.26141 L 455.90997,339.03094 C 455.90994,336.65793 455.324,334.96604 454.15216,333.95526 C 452.98026,332.94456 450.76834,332.43919 447.51642,332.43915 C 445.31913,332.43919 443.60527,332.87131 442.37482,333.73553 C 441.14433,334.59983 440.14824,336.11594 439.38654,338.28387 L 439.38654,338.28387 z M 455.90997,348.30341 C 454.32791,348.83077 451.82303,349.46065 448.39532,350.19305 C 444.96757,350.9255 442.72636,351.64327 441.67169,352.34637 C 440.06035,353.48897 439.25468,354.93916 439.2547,356.69696 C 439.25468,358.42549 439.89921,359.91963 441.18829,361.17938 C 442.47734,362.43916 444.11796,363.06904 446.11017,363.06903 C 448.33671,363.06904 450.46073,362.33662 452.48224,360.87177 C 453.97635,359.75849 454.95779,358.39619 455.42657,356.78485 C 455.74881,355.73018 455.90994,353.72334 455.90997,350.76434 L 455.90997,348.30341 z M 520.94904,337.84442 L 508.77618,340.04169 C 508.36599,337.61008 507.43582,335.77903 505.98566,334.54852 C 504.53543,333.31809 502.65311,332.70286 500.33868,332.70282 C 497.26249,332.70286 494.80888,333.76487 492.97784,335.88885 C 491.14677,338.01291 490.23125,341.56515 490.23126,346.54559 C 490.23125,352.08272 491.16142,355.99385 493.02179,358.27899 C 494.88212,360.56416 497.37968,361.70674 500.51447,361.70673 C 502.85819,361.70674 504.77713,361.04023 506.2713,359.70721 C 507.76541,358.37422 508.82009,356.08174 509.43536,352.82977 L 521.56427,354.8952 C 520.30446,360.46162 517.88747,364.66572 514.31329,367.50751 C 510.73904,370.3493 505.949,371.7702 499.94318,371.7702 C 493.11699,371.7702 487.6751,369.61688 483.61749,365.31024 C 479.55987,361.00361 477.53106,355.0417 477.53107,347.4245 C 477.53106,339.71945 479.56719,333.72092 483.63947,329.42889 C 487.71172,325.13695 493.21952,322.99095 500.1629,322.99091 C 505.84646,322.99095 510.3655,324.2141 513.72003,326.66034 C 517.07448,329.10667 519.48415,332.83469 520.94904,337.84442 L 520.94904,337.84442 z M 542.65802,306.29169 L 542.65802,329.97821 C 546.64237,325.32005 551.40311,322.99095 556.94025,322.99091 C 559.78201,322.99095 562.34548,323.5183 564.63068,324.57294 C 566.91579,325.62767 568.63698,326.97532 569.79425,328.61591 C 570.95143,330.25657 571.74244,332.07298 572.1673,334.06512 C 572.59205,336.05735 572.80446,339.14816 572.8045,343.33759 L 572.8045,370.71552 L 560.45587,370.71552 L 560.45587,346.06219 C 560.45584,341.16965 560.22146,338.06418 559.75275,336.74579 C 559.28396,335.42746 558.45633,334.3801 557.26984,333.6037 C 556.08328,332.82737 554.59647,332.43919 552.80939,332.43915 C 550.75858,332.43919 548.92753,332.93723 547.31622,333.93329 C 545.70487,334.92942 544.52568,336.43088 543.77863,338.43768 C 543.03154,340.44455 542.658,343.41085 542.65802,347.33661 L 542.65802,370.71552 L 530.30939,370.71552 L 530.30939,306.29169 L 542.65802,306.29169 z M 585.37286,317.71747 L 585.37286,306.29169 L 597.7215,306.29169 L 597.7215,317.71747 L 585.37286,317.71747 z M 585.37286,370.71552 L 585.37286,324.04559 L 597.7215,324.04559 L 597.7215,370.71552 L 585.37286,370.71552 z M 652.78497,370.71552 L 640.43634,370.71552 L 640.43634,346.89716 C 640.4363,341.85812 640.17263,338.59885 639.64532,337.11932 C 639.11795,335.63987 638.26101,334.48997 637.07452,333.66962 C 635.88797,332.84934 634.45975,332.43919 632.78986,332.43915 C 630.65116,332.43919 628.73221,333.02512 627.03302,334.19696 C 625.33378,335.36887 624.16923,336.9216 623.53937,338.85516 C 622.90947,340.78879 622.59452,344.363 622.59454,349.57782 L 622.59454,370.71552 L 610.24591,370.71552 L 610.24591,324.04559 L 621.71564,324.04559 L 621.71564,330.90106 C 625.78788,325.62767 630.91483,322.99095 637.0965,322.99091 C 639.82107,322.99095 642.3113,323.48168 644.5672,324.46307 C 646.82302,325.44456 648.52956,326.697 649.68683,328.2204 C 650.84401,329.74388 651.64967,331.47239 652.10382,333.40594 C 652.55787,335.33957 652.78492,338.10813 652.78497,341.71161 L 652.78497,370.71552 z M 692.3797,355.862 L 704.68439,357.92743 C 703.10231,362.43916 700.60476,365.87421 697.19171,368.2326 C 693.77859,370.591 689.50858,371.7702 684.38165,371.7702 C 676.2664,371.7702 670.26055,369.11884 666.36407,363.8161 C 663.2879,359.56807 661.74981,354.20674 661.74982,347.73212 C 661.74981,339.99777 663.7713,333.94065 667.81427,329.56073 C 671.85723,325.18089 676.96953,322.99095 683.15118,322.99091 C 690.09451,322.99095 695.57302,325.28343 699.58673,329.86835 C 703.60036,334.45334 705.5193,341.47726 705.34357,350.94012 L 674.40607,350.94012 C 674.49394,354.60225 675.49003,357.45137 677.39435,359.48749 C 679.29862,361.52363 681.67167,362.5417 684.51349,362.54169 C 686.44705,362.5417 688.07303,362.01435 689.39142,360.95966 C 690.70975,359.90498 691.70584,358.20576 692.3797,355.862 L 692.3797,355.862 z M 693.08282,343.38153 C 692.9949,339.80734 692.07205,337.09006 690.31427,335.22968 C 688.55643,333.36936 686.41776,332.43919 683.89825,332.43915 C 681.20292,332.43919 678.97636,333.42063 677.21857,335.38348 C 675.46074,337.34641 674.59648,340.01242 674.62579,343.38153 L 693.08282,343.38153 z M 711.1004,357.40009 L 723.49298,355.51044 C 724.02031,357.91279 725.08964,359.73652 726.70099,360.98163 C 728.3123,362.22675 730.56815,362.84931 733.46857,362.8493 C 736.6619,362.84931 739.06424,362.26338 740.6756,361.09149 C 741.75955,360.27119 742.30154,359.17256 742.30157,357.79559 C 742.30154,356.85811 742.00857,356.08174 741.42267,355.46649 C 740.8074,354.88057 739.43045,354.33858 737.29181,353.84052 C 727.33085,351.64327 721.01738,349.63643 718.35138,347.82001 C 714.65997,345.3005 712.81427,341.79953 712.81427,337.31708 C 712.81427,333.27415 714.41094,329.87571 717.60431,327.12177 C 720.79766,324.36791 725.74882,322.99095 732.45782,322.99091 C 738.84451,322.99095 743.5906,324.03099 746.69611,326.11102 C 749.80153,328.19114 751.9402,331.26731 753.11212,335.33954 L 741.46661,337.49286 C 740.96853,335.67649 740.02371,334.28489 738.63214,333.31805 C 737.24051,332.3513 735.25565,331.8679 732.67755,331.86786 C 729.42558,331.8679 727.09648,332.322 725.69025,333.23016 C 724.75273,333.87473 724.28398,334.70969 724.284,335.73505 C 724.28398,336.61399 724.69414,337.36106 725.51447,337.97626 C 726.62773,338.7966 730.47294,339.95383 737.05011,341.44794 C 743.62722,342.94211 748.2195,344.77316 750.82697,346.9411 C 753.40505,349.13839 754.69411,352.19991 754.69415,356.12567 C 754.69411,360.40303 752.907,364.07978 749.33282,367.15594 C 745.75857,370.23212 740.47049,371.7702 733.46857,371.7702 C 727.11113,371.7702 722.07939,370.48114 718.37335,367.90302 C 714.66729,365.3249 712.24298,361.82392 711.1004,357.40009 L 711.1004,357.40009 z M 777.85333,306.29169 L 777.85333,329.97821 C 781.83768,325.32005 786.59842,322.99095 792.13556,322.99091 C 794.97732,322.99095 797.54079,323.5183 799.82599,324.57294 C 802.1111,325.62767 803.83229,326.97532 804.98956,328.61591 C 806.14674,330.25657 806.93776,332.07298 807.36261,334.06512 C 807.78737,336.05735 807.99977,339.14816 807.99982,343.33759 L 807.99982,370.71552 L 795.65118,370.71552 L 795.65118,346.06219 C 795.65115,341.16965 795.41677,338.06418 794.94806,336.74579 C 794.47927,335.42746 793.65164,334.3801 792.46515,333.6037 C 791.27859,332.82737 789.79178,332.43919 788.0047,332.43915 C 785.95389,332.43919 784.12284,332.93723 782.51154,333.93329 C 780.90019,334.92942 779.72099,336.43088 778.97394,338.43768 C 778.22685,340.44455 777.85331,343.41085 777.85333,347.33661 L 777.85333,370.71552 L 765.5047,370.71552 L 765.5047,306.29169 L 777.85333,306.29169 z M 829.79669,338.28387 L 818.59064,336.26239 C 819.8504,331.75071 822.01836,328.41087 825.09454,326.24286 C 828.1707,324.07494 832.74101,322.99095 838.80548,322.99091 C 844.31326,322.99095 848.41482,323.64281 851.11017,324.94647 C 853.80544,326.25023 855.70241,327.9055 856.80109,329.91229 C 857.89968,331.91917 858.44899,335.60325 858.44904,340.96454 L 858.3172,355.3786 C 858.31716,359.48017 858.51491,362.50507 858.91046,364.45331 C 859.30592,366.40155 860.04567,368.48895 861.1297,370.71552 L 848.9129,370.71552 C 848.5906,369.8952 848.1951,368.67938 847.72638,367.06805 C 847.52127,366.33564 847.37478,365.85224 847.28693,365.61786 C 845.17752,367.66864 842.92166,369.20673 840.51935,370.23212 C 838.11698,371.25751 835.55351,371.7702 832.82892,371.7702 C 828.02422,371.7702 824.2376,370.46649 821.46906,367.85907 C 818.7005,365.25165 817.31622,361.95576 817.31622,357.97137 C 817.31622,355.33467 817.9461,352.9836 819.20587,350.91815 C 820.46563,348.85274 822.23077,347.27071 824.50128,346.17206 C 826.77178,345.07345 830.0457,344.11398 834.32306,343.29364 C 840.09452,342.20968 844.09354,341.19894 846.32013,340.26141 L 846.32013,339.03094 C 846.3201,336.65793 845.73416,334.96604 844.56232,333.95526 C 843.39041,332.94456 841.1785,332.43919 837.92657,332.43915 C 835.72929,332.43919 834.01542,332.87131 832.78497,333.73553 C 831.55449,334.59983 830.55839,336.11594 829.79669,338.28387 L 829.79669,338.28387 z M 846.32013,348.30341 C 844.73807,348.83077 842.23319,349.46065 838.80548,350.19305 C 835.37773,350.9255 833.13652,351.64327 832.08185,352.34637 C 830.4705,353.48897 829.66484,354.93916 829.66486,356.69696 C 829.66484,358.42549 830.30937,359.91963 831.59845,361.17938 C 832.88749,362.43916 834.52812,363.06904 836.52032,363.06903 C 838.74686,363.06904 840.87088,362.33662 842.8924,360.87177 C 844.38651,359.75849 845.36795,358.39619 845.83673,356.78485 C 846.15896,355.73018 846.3201,353.72334 846.32013,350.76434 L 846.32013,348.30341 z M 913.46857,370.71552 L 901.99884,370.71552 L 901.99884,363.86005 C 900.09451,366.52607 897.84597,368.51093 895.25323,369.81464 C 892.66043,371.11835 890.04569,371.7702 887.409,371.7702 C 882.04765,371.7702 877.45537,369.60956 873.63214,365.28827 C 869.80889,360.96699 867.89727,354.93916 867.89728,347.20477 C 867.89727,339.29465 869.75762,333.28147 873.47833,329.16522 C 877.19902,325.04906 881.90117,322.99095 887.58478,322.99091 C 892.79959,322.99095 897.31131,325.15892 901.11993,329.49481 L 901.11993,306.29169 L 913.46857,306.29169 L 913.46857,370.71552 z M 880.50958,346.36981 C 880.50957,351.3503 881.19804,354.95381 882.57501,357.18036 C 884.56718,360.40303 887.35038,362.01435 890.92462,362.01434 C 893.76639,362.01435 896.18338,360.80586 898.1756,358.38885 C 900.16775,355.97188 901.16384,352.36104 901.16388,347.55634 C 901.16384,342.19504 900.19705,338.33518 898.26349,335.97675 C 896.32986,333.61838 893.85428,332.43919 890.83673,332.43915 C 887.90702,332.43919 885.45341,333.60374 883.47589,335.9328 C 881.49833,338.26193 880.50957,341.74093 880.50958,346.36981 L 880.50958,346.36981 z M 921.33478,357.40009 L 933.72736,355.51044 C 934.25468,357.91279 935.32402,359.73652 936.93536,360.98163 C 938.54667,362.22675 940.80253,362.84931 943.70294,362.8493 C 946.89627,362.84931 949.29861,362.26338 950.90997,361.09149 C 951.99392,360.27119 952.53592,359.17256 952.53595,357.79559 C 952.53592,356.85811 952.24295,356.08174 951.65704,355.46649 C 951.04178,354.88057 949.66483,354.33858 947.52618,353.84052 C 937.56523,351.64327 931.25176,349.63643 928.58575,347.82001 C 924.89434,345.3005 923.04864,341.79953 923.04865,337.31708 C 923.04864,333.27415 924.64532,329.87571 927.83868,327.12177 C 931.03203,324.36791 935.9832,322.99095 942.6922,322.99091 C 949.07889,322.99095 953.82498,324.03099 956.93048,326.11102 C 960.03591,328.19114 962.17458,331.26731 963.3465,335.33954 L 951.70099,337.49286 C 951.20291,335.67649 950.25809,334.28489 948.86652,333.31805 C 947.47489,332.3513 945.49003,331.8679 942.91193,331.86786 C 939.65995,331.8679 937.33085,332.322 935.92462,333.23016 C 934.98711,333.87473 934.51836,334.70969 934.51837,335.73505 C 934.51836,336.61399 934.92851,337.36106 935.74884,337.97626 C 936.8621,338.7966 940.70731,339.95383 947.28448,341.44794 C 953.8616,342.94211 958.45388,344.77316 961.06134,346.9411 C 963.63942,349.13839 964.92848,352.19991 964.92853,356.12567 C 964.92848,360.40303 963.14137,364.07978 959.5672,367.15594 C 955.99294,370.23212 950.70486,371.7702 943.70294,371.7702 C 937.3455,371.7702 932.31377,370.48114 928.60773,367.90302 C 924.90167,365.3249 922.47735,361.82392 921.33478,357.40009 L 921.33478,357.40009 z M 972.9266,346.72137 C 972.9266,342.61984 973.9373,338.65012 975.9588,334.81219 C 977.9803,330.97434 980.844,328.04466 984.5501,326.02313 C 988.2561,324.00169 992.3943,322.99095 996.9647,322.99091 C 1004.0252,322.99095 1009.8113,325.28343 1014.3231,329.86835 C 1018.8347,334.45334 1021.0906,340.2468 1021.0906,347.24872 C 1021.0906,354.30928 1018.8128,360.16133 1014.2571,364.80487 C 1009.7014,369.44843 1003.9666,371.7702 997.0526,371.7702 C 992.7752,371.7702 988.6956,370.80341 984.8138,368.86981 C 980.9319,366.93622 977.9803,364.10175 975.9588,360.36639 C 973.9373,356.63106 972.9266,352.08272 972.9266,346.72137 L 972.9266,346.72137 z M 985.5828,347.38055 C 985.5828,352.00948 986.6814,355.5544 988.8787,358.01532 C 991.076,360.47627 993.7859,361.70674 997.0086,361.70673 C 1000.2312,361.70674 1002.9339,360.47627 1005.1165,358.01532 C 1007.2991,355.5544 1008.3904,351.98018 1008.3904,347.29266 C 1008.3904,342.72238 1007.2991,339.20676 1005.1165,336.74579 C 1002.9339,334.28489 1000.2312,333.05442 997.0086,333.05438 C 993.7859,333.05442 991.076,334.28489 988.8787,336.74579 C 986.6814,339.20676 985.5828,342.75168 985.5828,347.38055 L 985.5828,347.38055 z M 1061.5203,370.71552 L 1061.5203,363.72821 C 1059.8211,366.21845 1057.5872,368.18134 1054.8187,369.61688 C 1052.0501,371.05243 1049.1277,371.7702 1046.0516,371.7702 C 1042.9168,371.7702 1040.1043,371.08173 1037.6141,369.70477 C 1035.1238,368.32782 1033.3221,366.39423 1032.2088,363.90399 C 1031.0955,361.41377 1030.5389,357.97139 1030.5389,353.57684 L 1030.5389,324.04559 L 1042.8875,324.04559 L 1042.8875,345.49091 C 1042.8875,352.05342 1043.1145,356.07442 1043.5687,357.55389 C 1044.0227,359.0334 1044.8504,360.20527 1046.0516,361.06952 C 1047.2527,361.93379 1048.7762,362.36591 1050.6219,362.36591 C 1052.7312,362.36591 1054.6209,361.7873 1056.2908,360.63007 C 1057.9607,359.47285 1059.1033,358.03731 1059.7186,356.32343 C 1060.3338,354.60957 1060.6414,350.4128 1060.6414,343.73309 L 1060.6414,324.04559 L 1072.9901,324.04559 L 1072.9901,370.71552 L 1061.5203,370.71552 z M 1085.8221,370.71552 L 1085.8221,306.29169 L 1098.1707,306.29169 L 1098.1707,370.71552 L 1085.8221,370.71552 z M 1106.4324,357.40009 L 1118.825,355.51044 C 1119.3523,357.91279 1120.4217,359.73652 1122.033,360.98163 C 1123.6443,362.22675 1125.9002,362.84931 1128.8006,362.8493 C 1131.9939,362.84931 1134.3963,362.26338 1136.0076,361.09149 C 1137.0916,360.27119 1137.6336,359.17256 1137.6336,357.79559 C 1137.6336,356.85811 1137.3406,356.08174 1136.7547,355.46649 C 1136.1394,354.88057 1134.7625,354.33858 1132.6238,353.84052 C 1122.6629,351.64327 1116.3494,349.63643 1113.6834,347.82001 C 1109.992,345.3005 1108.1463,341.79953 1108.1463,337.31708 C 1108.1463,333.27415 1109.743,329.87571 1112.9363,327.12177 C 1116.1297,324.36791 1121.0809,322.99095 1127.7899,322.99091 C 1134.1765,322.99095 1138.9226,324.03099 1142.0281,326.11102 C 1145.1336,328.19114 1147.2722,331.26731 1148.4442,335.33954 L 1136.7986,337.49286 C 1136.3006,335.67649 1135.3557,334.28489 1133.9642,333.31805 C 1132.5725,332.3513 1130.5877,331.8679 1128.0096,331.86786 C 1124.7576,331.8679 1122.4285,332.322 1121.0223,333.23016 C 1120.0848,333.87473 1119.616,334.70969 1119.616,335.73505 C 1119.616,336.61399 1120.0262,337.36106 1120.8465,337.97626 C 1121.9598,338.7966 1125.805,339.95383 1132.3821,341.44794 C 1138.9593,342.94211 1143.5515,344.77316 1146.159,346.9411 C 1148.7371,349.13839 1150.0261,352.19991 1150.0262,356.12567 C 1150.0261,360.40303 1148.239,364.07978 1144.6649,367.15594 C 1141.0906,370.23212 1135.8025,371.7702 1128.8006,371.7702 C 1122.4432,371.7702 1117.4114,370.48114 1113.7054,367.90302 C 1109.9993,365.3249 1107.575,361.82392 1106.4324,357.40009 L 1106.4324,357.40009 z M 1160.8807,370.71552 L 1160.8807,358.36688 L 1173.2293,358.36688 L 1173.2293,370.71552 L 1160.8807,370.71552 z M 1182.9852,346.72137 C 1182.9852,342.61984 1183.9959,338.65012 1186.0174,334.81219 C 1188.0389,330.97434 1190.9026,328.04466 1194.6087,326.02313 C 1198.3147,324.00169 1202.4529,322.99095 1207.0233,322.99091 C 1214.0838,322.99095 1219.8699,325.28343 1224.3817,329.86835 C 1228.8933,334.45334 1231.1492,340.2468 1231.1492,347.24872 C 1231.1492,354.30928 1228.8713,360.16133 1224.3157,364.80487 C 1219.76,369.44843 1214.0252,371.7702 1207.1111,371.7702 C 1202.8338,371.7702 1198.7542,370.80341 1194.8724,368.86981 C 1190.9905,366.93622 1188.0389,364.10175 1186.0174,360.36639 C 1183.9959,356.63106 1182.9852,352.08272 1182.9852,346.72137 L 1182.9852,346.72137 z M 1195.6414,347.38055 C 1195.6414,352.00948 1196.74,355.5544 1198.9373,358.01532 C 1201.1346,360.47627 1203.8445,361.70674 1207.0672,361.70673 C 1210.2898,361.70674 1212.9925,360.47627 1215.1751,358.01532 C 1217.3577,355.5544 1218.449,351.98018 1218.449,347.29266 C 1218.449,342.72238 1217.3577,339.20676 1215.1751,336.74579 C 1212.9925,334.28489 1210.2898,333.05442 1207.0672,333.05438 C 1203.8445,333.05442 1201.1346,334.28489 1198.9373,336.74579 C 1196.74,339.20676 1195.6414,342.75168 1195.6414,347.38055 L 1195.6414,347.38055 z M 1252.6824,370.71552 L 1240.3338,370.71552 L 1240.3338,324.04559 L 1251.8035,324.04559 L 1251.8035,330.68134 C 1253.7664,327.54661 1255.5315,325.48119 1257.0989,324.48505 C 1258.6663,323.489 1260.4461,322.99095 1262.4383,322.99091 C 1265.2508,322.99095 1267.9607,323.76732 1270.5682,325.32001 L 1266.7449,336.08661 C 1264.6648,334.73899 1262.7312,334.06516 1260.9442,334.06512 C 1259.2156,334.06516 1257.7508,334.54123 1256.5496,335.49335 C 1255.3484,336.44553 1254.4036,338.16672 1253.7151,340.65692 C 1253.0267,343.14718 1252.6824,348.36202 1252.6824,356.30145 L 1252.6824,370.71552 z M 1274.699,373.79169 L 1288.8055,375.50555 C 1289.0398,377.14617 1289.5818,378.2741 1290.4315,378.88934 C 1291.6033,379.76824 1293.449,380.20769 1295.9686,380.2077 C 1299.1912,380.20769 1301.6082,379.7243 1303.2195,378.75751 C 1304.3035,378.11297 1305.1238,377.07293 1305.6805,375.63739 C 1306.0613,374.612 1306.2517,372.72235 1306.2518,369.96844 L 1306.2518,363.15692 C 1302.5603,368.19599 1297.9021,370.71552 1292.2772,370.71552 C 1286.0076,370.71552 1281.0418,368.06415 1277.3797,362.76141 C 1274.5086,358.57197 1273.0731,353.35713 1273.0731,347.11688 C 1273.0731,339.29465 1274.9554,333.31809 1278.72,329.18719 C 1282.4847,325.05638 1287.1648,322.99095 1292.7606,322.99091 C 1298.532,322.99095 1303.2928,325.52513 1307.0428,330.59344 L 1307.0428,324.04559 L 1318.6004,324.04559 L 1318.6004,365.92548 C 1318.6004,371.43329 1318.1463,375.54949 1317.2381,378.27411 C 1316.3298,380.99871 1315.0554,383.13738 1313.4149,384.69012 C 1311.7742,386.24284 1309.5842,387.45866 1306.845,388.33759 C 1304.1057,389.21647 1300.6414,389.65593 1296.452,389.65594 C 1288.5418,389.65593 1282.9314,388.30095 1279.6209,385.591 C 1276.3104,382.88103 1274.6551,379.44598 1274.6551,375.28583 C 1274.6551,374.87567 1274.6697,374.37762 1274.699,373.79169 L 1274.699,373.79169 z M 1285.7293,346.41376 C 1285.7293,351.36495 1286.6888,354.99043 1288.6077,357.29022 C 1290.5267,359.59004 1292.8924,360.73994 1295.7049,360.73993 C 1298.7224,360.73994 1301.2713,359.56074 1303.3514,357.20233 C 1305.4314,354.84395 1306.4715,351.3503 1306.4715,346.72137 C 1306.4715,341.88742 1305.4754,338.29856 1303.4832,335.95477 C 1301.491,333.61106 1298.9715,332.43919 1295.9246,332.43915 C 1292.9656,332.43919 1290.5267,333.58909 1288.6077,335.88885 C 1286.6888,338.18869 1285.7293,341.69699 1285.7293,346.41376 L 1285.7293,346.41376 z"
       id="text3350" />
  </g>
  <g
     inkscape:groupmode="layer"
     id="layer8"
     inkscape:label="Logo"
     sodipodi:insensitive="true"
     style="display:none">
    <g
       id="g3422"
       transform="translate(-1.4285714,0.1785714)">
      <path
         sodipodi:nodetypes="cccccccc"
         id="path3416"
         d="M 751.31628,319.41561 L 748.7909,321.68845 L 748.52304,315.09183 L 739.55793,314.96556 L 740.18928,381.50936 L 749.40692,381.38309 L 749.12505,357.97233 L 752.40805,360.24517"
         style="fill:none;fill-opacity:0.75;fill-rule:evenodd;stroke:#d2ddc5;stroke-width:2.79999995;stroke-linecap:butt;stroke-linejoin:miter;stroke-miterlimit:4;stroke-dasharray:none;stroke-opacity:1" />
      <path
         transform="matrix(0.9993166,0,0,1.0251609,0.6587908,-16.23407)"
         d="M 778.82759,346.91162 A 15.026019,14.647213 0 1 1 748.77556,346.91162 A 15.026019,14.647213 0 1 1 778.82759,346.91162 z"
         sodipodi:ry="14.647213"
         sodipodi:rx="15.026019"
         sodipodi:cy="346.91162"
         sodipodi:cx="763.80157"
         id="path3418"
         style="opacity:1;fill:none;fill-opacity:1;stroke:#d2ddc5;stroke-width:2.76637125;stroke-linejoin:miter;stroke-miterlimit:4;stroke-dasharray:none;stroke-opacity:1"
         sodipodi:type="arc" />
      <path
         sodipodi:open="true"
         sodipodi:end="4.7610584"
         sodipodi:start="0.22514585"
         transform="matrix(-1.2645701,-0.9801863,1.0055359,-1.2972744,1381.6145,1538.325)"
         d="M 778.44836,350.18159 A 15.026019,14.647213 0 1 1 764.53259,332.28175"
         sodipodi:ry="14.647213"
         sodipodi:rx="15.026019"
         sodipodi:cy="346.91162"
         sodipodi:cx="763.80157"
         id="path3420"
         style="opacity:1;fill:none;fill-opacity:1;stroke:#d2ddc5;stroke-width:1.72783327;stroke-linejoin:miter;stroke-miterlimit:4;stroke-dasharray:none;stroke-opacity:1"
         sodipodi:type="arc" />
    </g>
    <g
       id="g3427"
       transform="translate(96.418867,1.4411101)">
      <path
         sodipodi:nodetypes="cccccccc"
         id="path3429"
         d="M 751.31628,319.41561 L 748.7909,321.68845 L 748.52304,315.09183 L 739.55793,314.96556 L 740.18928,381.50936 L 749.40692,381.38309 L 749.12505,357.97233 L 752.40805,360.24517"
         style="fill:none;fill-opacity:0.75;fill-rule:evenodd;stroke:#d2ddc5;stroke-width:2.79999995;stroke-linecap:butt;stroke-linejoin:miter;stroke-miterlimit:4;stroke-dasharray:none;stroke-opacity:1" />
      <path
         transform="matrix(0.9993166,0,0,1.0251609,0.6587908,-16.23407)"
         d="M 778.82759,346.91162 A 15.026019,14.647213 0 1 1 748.77556,346.91162 A 15.026019,14.647213 0 1 1 778.82759,346.91162 z"
         sodipodi:ry="14.647213"
         sodipodi:rx="15.026019"
         sodipodi:cy="346.91162"
         sodipodi:cx="763.80157"
         id="path3431"
         style="opacity:1;fill:none;fill-opacity:1;stroke:#d2ddc5;stroke-width:2.76637125;stroke-linejoin:miter;stroke-miterlimit:4;stroke-dasharray:none;stroke-opacity:1"
         sodipodi:type="arc" />
      <path
         sodipodi:open="true"
         sodipodi:end="4.7610584"
         sodipodi:start="0.22514585"
         transform="matrix(-1.2645701,-0.9801863,1.0055359,-1.2972744,1381.6145,1538.325)"
         d="M 778.44836,350.18159 A 15.026019,14.647213 0 1 1 764.53259,332.28175"
         sodipodi:ry="14.647213"
         sodipodi:rx="15.026019"
         sodipodi:cy="346.91162"
         sodipodi:cx="763.80157"
         id="path3433"
         style="opacity:1;fill:none;fill-opacity:1;stroke:#d2ddc5;stroke-width:1.72783327;stroke-linejoin:miter;stroke-miterlimit:4;stroke-dasharray:none;stroke-opacity:1"
         sodipodi:type="arc" />
    </g>
    <g
       id="g3435"
       transform="matrix(-1,0,0,-1,1575.9383,678.70174)">
      <path
         sodipodi:nodetypes="cccccccc"
         id="path3437"
         d="M 751.31628,319.41561 L 748.7909,321.68845 L 748.52304,315.09183 L 739.55793,314.96556 L 740.18928,381.50936 L 749.40692,381.38309 L 749.12505,357.97233 L 752.40805,360.24517"
         style="fill:none;fill-opacity:0.75;fill-rule:evenodd;stroke:#d2ddc5;stroke-width:2.79999995;stroke-linecap:butt;stroke-linejoin:miter;stroke-miterlimit:4;stroke-dasharray:none;stroke-opacity:1" />
      <path
         transform="matrix(0.9993166,0,0,1.0251609,0.6587908,-16.23407)"
         d="M 778.82759,346.91162 A 15.026019,14.647213 0 1 1 748.77556,346.91162 A 15.026019,14.647213 0 1 1 778.82759,346.91162 z"
         sodipodi:ry="14.647213"
         sodipodi:rx="15.026019"
         sodipodi:cy="346.91162"
         sodipodi:cx="763.80157"
         id="path3439"
         style="opacity:1;fill:none;fill-opacity:1;stroke:#d2ddc5;stroke-width:2.76637125;stroke-linejoin:miter;stroke-miterlimit:4;stroke-dasharray:none;stroke-opacity:1"
         sodipodi:type="arc" />
      <path
         sodipodi:open="true"
         sodipodi:end="4.7610584"
         sodipodi:start="0.22514585"
         transform="matrix(-1.2645701,-0.9801863,1.0055359,-1.2972744,1381.6145,1538.325)"
         d="M 778.44836,350.18159 A 15.026019,14.647213 0 1 1 764.53259,332.28175"
         sodipodi:ry="14.647213"
         sodipodi:rx="15.026019"
         sodipodi:cy="346.91162"
         sodipodi:cx="763.80157"
         id="path3441"
         style="opacity:1;fill:none;fill-opacity:1;stroke:#d2ddc5;stroke-width:1.72783327;stroke-linejoin:miter;stroke-miterlimit:4;stroke-dasharray:none;stroke-opacity:1"
         sodipodi:type="arc" />
    </g>
    <path
       style="fill:#d2ddc5;fill-opacity:1;fill-rule:evenodd;stroke:#d2ddc5;stroke-width:3.4000001;stroke-linecap:butt;stroke-linejoin:miter;stroke-miterlimit:4;stroke-dasharray:none;stroke-opacity:1"
       d="M 917.76786,363.39286 L 917.14286,316.51786 L 907.94643,316.60714 C 902.81995,323.55156 900.8483,323.26031 897.76786,323.83928 L 897.76785,325 L 908.48214,324.91071 L 909.19643,363.39286 L 917.76786,363.39286 z"
       id="path3443"
       sodipodi:nodetypes="cccccccc" />
    <path
       style="fill:#d2ddc5;fill-opacity:1;fill-rule:evenodd;stroke:#d2ddc5;stroke-width:3.4000001;stroke-linecap:butt;stroke-linejoin:miter;stroke-miterlimit:4;stroke-dasharray:none;stroke-opacity:1"
       d="M 895.89287,363.38393 L 895.26787,316.50893 L 886.07144,316.59821 C 880.94496,323.54263 880.66974,322.80495 877.5893,323.38392 L 878.83929,324.54464 L 886.60715,324.90178 L 887.32144,363.38393 L 895.89287,363.38393 z"
       id="path3445"
       sodipodi:nodetypes="cccccccc" />
  </g>
</svg>
